<svg width="213" height="134" viewBox="0 0 213 134" fill="none" xmlns="http://www.w3.org/2000/svg">
<g clip-path="url(#clip0_105_10)">
<path d="M200.64 0H10.36C4.08605 0 -1 5.08605 -1 11.36V122.404C-1 128.678 4.08605 133.764 10.36 133.764H200.64C206.914 133.764 212 128.678 212 122.404V11.36C212 5.08605 206.914 0 200.64 0Z" fill="#005FAF"/>
<path d="M112.167 65.8752C122.317 61.2796 123.818 46.2827 109.381 46.2827H92.6615L86.4828 58.3769H89.3905L82.0001 87.2821H101.384C115.526 87.4027 121.886 70.7791 112.167 65.8752ZM101.384 76.7602H96.5383L98.3555 70.2295H102.959C108.411 71.3177 105.019 77.0019 101.384 76.7602ZM104.292 62.8515H100.173L101.384 57.1673H105.988C110.436 58.2559 106.594 63.0936 104.292 62.8515Z" fill="white" stroke="#005FAF" stroke-width="0.129766"/>
<path d="M152.062 62.1407L158.463 50.8122L149.802 46.2827L148.672 47.6806C143.999 45.2009 119.532 48.6247 118 72.8219C118.916 93.1204 141.603 89.4691 143.829 88.1811L150.069 75.2492C143.957 79.2848 131.444 81.2222 130.915 69.0996C132.012 59.1029 143.785 55.3697 152.062 62.1407ZM184.004 46.497H164.325L158.071 58.3794H161.284L146.454 88.0213H160.808L163.755 80.8717H172.567L172.786 88.0213H186L184.004 46.497ZM167.748 71.2456L172.566 59.7137L172.786 71.2456H167.748Z" fill="white" stroke="#005FAF" stroke-width="0.129766"/>
<path d="M61.7362 85.621L62.4968 85.4004L61.6626 84.2476L61.7362 85.621ZM49.2486 85.4248L49.1015 86.4552C49.4801 86.4183 49.9462 86.7446 50.132 86.0136C50.118 85.444 49.6844 85.4126 49.2486 85.4248ZM55.3087 85.4004C55.2456 85.1198 55.0113 84.913 54.4253 85.1062L54.6216 86.1607C55.103 86.054 55.3505 85.7692 55.3087 85.4004ZM41.6188 84.5372L41.3845 85.4743C41.761 85.49 42.202 85.7953 42.4519 85.24C42.4687 84.8921 42.483 84.5456 41.6188 84.5372ZM54.7934 86.9461L54.9653 88.0257C55.3672 88.0358 55.734 87.7942 55.6276 87.2898C55.5252 86.8045 55.1176 86.8812 54.7934 86.9461Z" fill="white"/>
<path d="M70.7483 46.9308C57.757 40.3126 42.2418 40.4967 29.8637 46.6421C23.4808 57.8786 23.2776 73.6001 29.8637 87.5246C43.5006 94.4255 58.5831 93.9709 70.8441 87.8133C76.6065 75.9912 77.5582 61.7655 70.7483 46.9308ZM48.8073 80.4829L48.0373 80.4916C47.8466 78.3637 47.338 76.5754 46.2469 75.2068C41.2434 68.9324 31.0154 73.6562 33.6435 62.9929C35.0101 57.5415 50.597 54.3263 48.8073 80.4829ZM33.662 69.951C34.7545 72.1747 41.5993 72.539 43.9754 74.2412C47.7444 76.9411 47.2034 80.4927 47.2034 80.4927H46.3145C44.5645 75.1287 39.6531 79.3757 35.7191 77.9311C33.2493 77.0527 31.4561 73.2449 33.662 69.951ZM46.1329 87.4371L46.501 84.5176L47.1633 84.5667L46.8688 87.7805C46.5718 89.1962 44.461 89.0069 44.1946 87.6578L44.538 84.3213L45.3231 84.4444L44.9797 87.2409C45.0233 88.1664 45.9516 88.111 46.1329 87.4371ZM42.6082 88.2344L41.8531 88.0521C41.9416 87.4281 42.6817 86.1585 41.219 86.1585L40.8118 87.8178L39.9787 87.6616L40.8638 83.6782C43.0272 83.9138 43.2165 84.5158 43.2593 85.1622C43.1739 85.6634 43.0404 86.0134 42.6085 86.0992C43.114 86.558 42.6144 87.5194 42.6082 88.2344ZM37.8125 83.7726C37.6043 84.0487 37.1878 85.0133 37.1275 85.782C37.0633 86.5966 37.8459 86.4251 38.0408 86.33C38.198 86.2536 38.3148 85.5993 38.3148 85.5993L37.7668 85.4166L37.9495 84.869L39.1828 85.28L38.5891 87.3353L38.0868 87.198L38.1325 86.8783C37.5175 87.1586 36.3919 86.9484 36.2598 86.239C36.1277 85.669 36.5279 83.941 37.1731 83.1336C37.8003 82.3486 39.3282 83.1159 39.3655 83.5903C39.4024 84.063 39.2159 84.595 39.2159 84.595L38.6407 84.4866C38.6407 84.4866 38.6759 84.3158 38.7261 84.0466C38.7791 83.7615 38.0356 83.476 37.8125 83.7726ZM49.028 87.1178L48.8809 88.8845L48.2677 88.8601L48.4884 84.6647C50.0198 84.6964 50.8975 84.9084 50.8683 85.9897C50.7769 87.4671 49.5805 87.1349 49.028 87.1178ZM50.5545 80.4923H49.5286C49.4376 76.8592 50.1362 70.2138 48.2273 65.3233C46.7809 61.6159 43.1206 59.9482 42.3094 56.9534C41.0252 52.2131 43.2109 47.0842 50.5545 46.6892C56.921 47.3428 58.877 52.2577 57.7911 56.8338C55.924 61.4092 54.0566 60.7517 51.7317 65.3094C49.8329 70.195 50.5559 76.5956 50.5545 80.4923ZM61.9325 87.2161L61.221 87.4615L61 83.2417L61.8342 83.0211L63.8951 86.5046L63.3307 86.8727L62.6436 85.8918L61.8586 86.186L61.9325 87.2161ZM53.632 80.4923H52.8114C53.4876 71.1617 65.2128 73.1888 66.2844 69.951C68.1376 73.1609 67.4714 75.8674 65.5363 77.2548C60.7277 80.7039 56.1168 74.7024 53.632 80.4923ZM57.9828 85.2047L58.351 87.1429C58.58 87.5895 58.7355 87.5068 59.0869 87.4619C59.4944 87.167 59.4093 86.8797 59.3323 86.505L60.0438 86.407C60.2292 87.8112 59.5617 87.9544 59.0625 88.0507C57.9919 88.1273 57.7821 87.9189 57.4924 86.5297C57.3236 85.3406 57.0322 84.085 58.032 83.8556C59.6732 83.605 59.5763 84.3436 59.7248 84.8613L59.0133 84.9844C58.8997 84.5396 58.7362 84.3632 58.3754 84.3959C58.0466 84.5469 57.9117 84.7912 57.9828 85.2047ZM56.4863 87.2161C56.5205 87.8272 56.313 88.233 55.9219 88.3693L54.2535 88.7126L53.5912 84.6647C53.9335 84.6089 55.612 83.994 56.0199 85.1067C56.221 85.7862 56.0126 86.0298 55.7745 86.3331C56.2259 86.4781 56.3782 86.8295 56.4863 87.2161ZM52.202 66.9021C55.9188 56.4371 64.4236 58.2864 66.3099 62.9932C68.894 72.4379 60.5729 69.8478 55.2428 73.7207C53.2283 75.4728 52.1682 77.4828 52.1525 80.5299H51.2392C51.1844 74.3925 51.0851 70.0465 52.202 66.9021Z" fill="white"/>
</g>
<defs>
<clipPath id="clip0_105_10">
<rect width="213" height="134" fill="white"/>
</clipPath>
</defs>
</svg>
