<svg width="213" height="134" viewBox="0 0 213 134" fill="none" xmlns="http://www.w3.org/2000/svg">
<g clip-path="url(#clip0_105_10)">
<path d="M200.64 0H10.36C4.08605 0 -1 5.08605 -1 11.36V122.404C-1 128.678 4.08605 133.764 10.36 133.764H200.64C206.914 133.764 212 128.678 212 122.404V11.36C212 5.08605 206.914 0 200.64 0Z" fill="#16366F"/>
<path d="M62.8008 119.914V112.856C62.8008 110.15 61.1536 108.386 58.45 108.386C57.03 108.386 55.5106 108.858 54.4512 110.374C53.6276 109.079 52.4632 108.386 50.6882 108.386C49.3477 108.328 48.0676 108.947 47.2802 110.033V108.613H45.0452V119.905H47.2802V113.444C47.2802 111.456 48.456 110.505 50.1032 110.505C51.7504 110.505 52.6904 111.564 52.6904 113.444V119.914H54.9255V113.444C54.9255 111.456 56.1013 110.505 57.7485 110.505C59.3957 110.505 60.3357 111.564 60.3357 113.444V119.914H62.8008ZM99.4993 108.738H95.3813V105.33H93.1519V108.738H90.8004V110.726H93.1519V116.032C93.1519 118.619 94.092 120.15 96.9149 120.15C97.9844 120.127 99.0323 119.845 99.9679 119.326L99.2608 117.338C98.6262 117.735 97.8903 117.939 97.1421 117.926C95.9664 117.926 95.3785 117.219 95.3785 116.043V110.636H99.4965V108.753L99.4993 108.738ZM120.436 108.386C119.197 108.359 118.036 108.984 117.377 110.033V108.613H115.142V119.905H117.377V113.564C117.377 111.681 118.317 110.505 119.848 110.505C120.364 110.526 120.877 110.605 121.376 110.741L122.083 108.622C121.544 108.486 120.992 108.407 120.436 108.386ZM88.7954 109.562C87.6196 108.738 85.9724 108.386 84.2088 108.386C81.3858 108.386 79.6222 109.681 79.6222 111.916C79.6222 113.799 80.9172 114.856 83.3852 115.211L84.5609 115.327C85.856 115.563 86.6796 116.034 86.6796 116.622C86.6796 117.446 85.7395 118.042 83.973 118.042C82.6242 118.07 81.3031 117.657 80.21 116.867L79.0343 118.63C80.6815 119.806 82.6808 120.05 83.8623 120.05C87.1567 120.05 88.9203 118.522 88.9203 116.404C88.9203 114.416 87.5003 113.464 85.038 113.109L83.8623 112.993C82.803 112.876 81.8743 112.521 81.8743 111.817C81.8743 110.993 82.8143 110.397 84.1094 110.397C85.5294 110.397 86.9323 110.985 87.6395 111.337L88.7954 109.562ZM122.907 114.268C122.907 117.676 125.142 120.15 128.788 120.15C130.435 120.15 131.611 119.797 132.787 118.855L131.611 117.091C130.779 117.765 129.743 118.138 128.672 118.15C126.684 118.15 125.142 116.622 125.142 114.387C125.142 112.152 126.664 110.636 128.672 110.636C129.743 110.647 130.779 111.021 131.611 111.695L132.787 109.931C131.611 108.991 130.435 108.636 128.788 108.636C125.258 108.4 122.907 110.871 122.907 114.282V114.268ZM107.145 108.386C103.85 108.386 101.615 110.738 101.615 114.268C101.615 117.798 103.967 120.15 107.377 120.15C109.037 120.185 110.657 119.645 111.964 118.622L110.788 116.974C109.843 117.707 108.689 118.119 107.494 118.15C105.966 118.15 104.319 117.21 104.086 115.211H112.438V114.271C112.438 110.741 110.32 108.389 107.145 108.389V108.386ZM107.028 110.505C108.675 110.505 109.851 111.564 109.968 113.328H103.853C104.205 111.681 105.273 110.505 107.028 110.505ZM76.5635 114.268V108.622H74.3284V110.042C73.5048 108.983 72.3404 108.395 70.6818 108.395C67.5067 108.395 65.1524 110.866 65.1524 114.276C65.1524 117.687 67.5039 120.158 70.6818 120.158C72.329 120.158 73.5048 119.57 74.3284 118.511V119.931H76.5635V114.268ZM67.5067 114.268C67.5067 112.149 68.8018 110.505 71.0368 110.505C73.1555 110.505 74.4448 112.152 74.4448 114.268C74.4448 116.503 73.0248 118.031 71.0368 118.031C68.8018 118.147 67.5067 116.384 67.5067 114.268ZM154.433 108.386C153.195 108.359 152.033 108.984 151.375 110.033V108.613H149.14V119.905H151.372V113.564C151.372 111.681 152.312 110.505 153.843 110.505C154.359 110.526 154.872 110.605 155.371 110.741L156.078 108.622C155.538 108.486 154.986 108.407 154.431 108.386H154.433ZM145.729 114.268V108.622H143.494V110.042C142.67 108.983 141.506 108.395 139.847 108.395C136.672 108.395 134.318 110.866 134.318 114.276C134.318 117.687 136.669 120.158 139.847 120.158C141.494 120.158 142.67 119.57 143.494 118.511V119.931H145.729V114.268ZM136.672 114.268C136.672 112.149 137.967 110.505 140.202 110.505C142.321 110.505 143.61 112.152 143.61 114.268C143.61 116.503 142.19 118.031 140.202 118.031C137.967 118.147 136.672 116.384 136.672 114.268ZM168.432 114.268V104.152H166.197V110.033C165.373 108.974 164.209 108.386 162.55 108.386C159.375 108.386 157.021 110.857 157.021 114.268C157.021 117.679 159.372 120.15 162.55 120.15C164.197 120.15 165.373 119.562 166.197 118.502V119.922H168.432V114.268ZM159.375 114.268C159.375 112.149 160.67 110.505 162.905 110.505C165.024 110.505 166.313 112.152 166.313 114.268C166.313 116.503 164.893 118.031 162.905 118.031C160.667 118.15 159.372 116.387 159.372 114.268H159.375Z" fill="white"/>
<path d="M127.025 22.9907H86.2082V89.566H127.025V22.9907Z" fill="#FF5F00"/>
<path d="M90.3261 56.2787C90.3289 43.3034 96.2647 31.0417 106.44 22.991C89.0799 9.34158 64.1447 11.3256 49.1613 27.5486C34.1778 43.7716 34.1778 68.7857 49.1613 85.0087C64.1447 101.232 89.0799 103.216 106.44 89.5663C96.2647 81.5156 90.3289 69.2539 90.3261 56.2787Z" fill="#EB001B"/>
<path d="M175.018 56.2786C175.029 72.4799 165.787 87.2647 151.217 94.3506C136.648 101.436 119.311 99.5785 106.574 89.5662C116.752 81.5175 122.688 69.2546 122.688 56.2786C122.688 43.3026 116.752 31.0397 106.574 22.991C119.311 12.9787 136.648 11.1208 151.217 18.2066C165.787 25.2925 175.029 40.0773 175.018 56.2786Z" fill="#F79E1B"/>
</g>
<defs>
<clipPath id="clip0_105_10">
<rect width="213" height="134" fill="white"/>
</clipPath>
</defs>
</svg>
