<svg width="213" height="134" viewBox="0 0 213 134" fill="none" xmlns="http://www.w3.org/2000/svg">
<g clip-path="url(#clip0_105_10)">
<path d="M200.64 0H10.36C4.08605 0 -1 5.08605 -1 11.36V122.404C-1 128.678 4.08605 133.764 10.36 133.764H200.64C206.914 133.764 212 128.678 212 122.404V11.36C212 5.08605 206.914 0 200.64 0Z" fill="black"/>
<path d="M76.9005 44.744L121.675 44.744L121.675 71.6069L102.891 71.6069L121.675 88.7984L105.718 88.7984L87.2968 71.6069L87.2968 88.7983L76.9006 88.7983L76.9005 61.4897L109.729 61.4897L109.729 54.9529L76.9005 54.9529L76.9005 44.744Z" fill="white"/>
<path d="M126.324 88.7983L137.267 88.7983L137.267 44.6547L126.324 44.6547L126.324 88.7983Z" fill="white"/>
<path d="M38.6936 78.1431L38.6935 44.744L30.1218 44.744C28.5716 44.744 27.386 45.9089 27.386 47.3397C27.386 55.2219 27.295 78.4118 27.295 86.112C27.295 87.5448 28.4806 88.7983 29.9396 88.7983C35.8668 88.7983 52.9185 88.7983 55.3796 88.7983L55.3796 78.1431L38.6936 78.1431Z" fill="white"/>
<path d="M61.0334 99.812C62.0378 99.812 69.697 99.812 72.2511 99.812C72.2511 99.812 72.2511 78.0536 72.2511 77.6956C68.6028 77.6956 64.7748 77.6956 61.0334 77.6956C61.0334 85.0377 61.0334 92.3799 61.0334 99.812Z" fill="white"/>
<path d="M44.1647 44.7442C44.1647 44.9246 44.1648 55.7572 44.1648 55.7572C49.1803 55.7572 55.5625 55.7572 61.0333 55.7572C61.0333 63.3703 61.0334 72.2339 61.0334 72.2339C63.5875 72.2339 71.2467 72.2339 72.251 72.2339L72.251 47.4318C72.251 45.9978 71.0638 44.8329 69.607 44.7442C64.1361 44.7442 51.1857 44.7442 44.1647 44.7442Z" fill="white"/>
<path d="M44.1648 61.1289C44.1648 64.8009 44.1648 68.473 44.1648 72.3223C45.0767 72.3223 46.0798 72.3223 46.9917 72.3223C49.5461 72.3223 52.7356 72.3223 55.2897 72.3223C55.2897 72.3223 55.2897 61.3093 55.2897 61.1289C51.6414 61.1289 47.9036 61.1289 44.1648 61.1289ZM52.0072 68.9193C50.913 68.9193 49.636 68.9193 48.6316 68.9193C48.2684 68.9193 47.9036 68.9193 47.4476 68.9193C47.4476 67.3967 47.4476 65.9658 47.4476 64.4432C48.9974 64.4432 50.4574 64.4432 52.0072 64.4432C52.0072 64.5318 52.0072 68.9193 52.0072 68.9193Z" fill="white"/>
<path d="M190.977 77.6955L190.977 94.1709C190.977 95.6034 189.7 96.7676 188.243 96.7676L171.465 96.7676L171.465 99.4536L190.977 99.4536L191.07 99.4536C192.437 99.4536 193.621 98.2896 193.621 96.8569L193.621 96.7676L193.621 77.6955L190.977 77.6955Z" fill="white"/>
<path d="M22.7358 55.6682L22.7358 39.1915C22.7358 37.7607 23.8299 36.6844 25.289 36.6844L42.0677 36.6844C42.1588 36.6844 42.1588 36.5957 42.1588 36.5957L42.1588 34.0886C42.1588 34.0886 42.1588 34 42.0677 34L22.7358 34C21.1856 34 20 35.1649 20 36.6844L20.0001 55.6682C20.0001 55.7568 20.0912 55.7568 20.0912 55.7568L22.6447 55.7568C22.6447 55.7568 22.7358 55.7568 22.7358 55.6682Z" fill="white"/>
<path d="M186.234 55.6683L186.234 44.7439L142.009 44.7439L142.009 61.1288L142.009 72.145L171.465 72.145L171.465 77.6059L142.009 77.6059L142.009 88.6191L186.234 88.6192L186.234 61.2206L156.782 61.2206L156.782 55.6683L186.234 55.6683Z" fill="white"/>
</g>
<defs>
<clipPath id="clip0_105_10">
<rect width="213" height="134" fill="white"/>
</clipPath>
</defs>
</svg>
