<svg width="50" height="50" viewBox="0 0 50 50" fill="none" xmlns="http://www.w3.org/2000/svg">
<path d="M35.3212 10.4031C34.7873 5.11562 30.3823 1 25.0238 1C19.6749 1 15.2699 5.07813 14.6597 10.3375L17.4343 10.5531C17.9301 6.75625 21.1146 3.82188 25.0048 3.82188C28.8949 3.82188 32.1176 6.80312 32.5276 10.6469L35.3212 10.4031ZM44.3124 9.79375C41.2613 9.79375 38.2198 9.63438 35.1782 9.89688L32.4036 10.1406C29.9342 10.3563 27.2263 10.975 25.0048 12.1C22.6402 10.8906 20.2184 10.2438 17.5773 10.0375L14.8027 9.82188C11.7516 9.57813 8.71964 9.78437 5.66856 9.78437H4V49H32.0699C39.7358 49 46 42.6531 46 34.8906V9.79375H44.3124ZM7.76617 26.3125C7.76617 21.7563 11.4179 18.0531 15.9183 18.0531C20.4186 18.0531 24.0704 21.7469 24.0704 26.3125C24.0704 30.8688 20.4186 34.5719 15.9183 34.5719C11.4084 34.5719 7.76617 30.8688 7.76617 26.3125ZM24.9857 39.1375C23.7748 37.8344 22.5639 36.5406 21.353 35.2469C22.1158 33.9156 23.5555 33.25 24.9857 33.2594C26.4159 33.2594 27.8556 33.9156 28.6184 35.2469C27.4075 36.5406 26.1966 37.8344 24.9857 39.1375ZM34.0531 34.5719C29.5528 34.5719 25.901 30.8781 25.901 26.3125C25.901 21.7563 29.5528 18.0531 34.0531 18.0531C38.5535 18.0531 42.2052 21.7469 42.2052 26.3125C42.2052 30.8688 38.5535 34.5719 34.0531 34.5719ZM16.9385 21.1844C19.8465 21.1844 22.2016 23.575 22.2016 26.5094C22.2016 29.4531 19.8465 31.8437 16.9385 31.8437C14.0304 31.8437 11.6754 29.4531 11.6754 26.5094C11.6754 25.525 11.9423 24.6063 12.4 23.8188C12.7719 24.7563 13.6872 25.4219 14.7551 25.4219C16.1566 25.4219 17.2913 24.2781 17.2913 22.8531C17.2913 22.2156 17.0624 21.6344 16.681 21.1844H16.9385ZM33.0329 21.1844C35.941 21.1844 38.296 23.575 38.296 26.5094C38.296 29.4531 35.941 31.8437 33.0329 31.8437C30.1249 31.8437 27.7698 29.4531 27.7698 26.5094C27.7698 25.525 28.0272 24.6063 28.4849 23.8188C28.8663 24.7563 29.7721 25.4219 30.84 25.4219C32.2415 25.4219 33.3762 24.2781 33.3762 22.8531C33.3762 22.2156 33.1473 21.6344 32.7659 21.1844H33.0329Z" fill="black"/>
</svg>
