<svg width="213" height="134" viewBox="0 0 213 134" fill="none" xmlns="http://www.w3.org/2000/svg">
<g clip-path="url(#clip0_105_10)">
<path d="M201.64 0H11.36C5.08605 0 0 5.09502 0 11.38V122.62C0 128.905 5.08605 134 11.36 134H201.64C207.914 134 213 128.905 213 122.62V11.38C213 5.09502 207.914 0 201.64 0Z" fill="#0E4595"/>
<path d="M79.0081 95.0881L88.4826 39.3936H103.637L94.1555 95.0881H79.0081Z" fill="white"/>
<path d="M148.903 40.5945C145.901 39.4662 141.197 38.2554 135.322 38.2554C120.348 38.2554 109.8 45.8092 109.71 56.6353C109.626 64.638 117.24 69.1024 122.989 71.7665C128.887 74.4963 130.87 76.2374 130.842 78.675C130.805 82.4082 126.132 84.1138 121.776 84.1138C115.711 84.1138 112.488 83.2697 107.512 81.1903L105.559 80.3049L103.432 92.7729C106.972 94.3274 113.517 95.6745 120.312 95.7442C136.242 95.7442 146.583 88.2769 146.7 76.7162C146.757 70.3807 142.72 65.5589 133.977 61.5842C128.681 59.0077 125.437 57.2885 125.471 54.6796C125.471 52.3646 128.217 49.8892 134.149 49.8892C139.105 49.8121 142.694 50.8946 145.491 52.0229L146.849 52.6656L148.903 40.5945Z" fill="white"/>
<path d="M187.899 39.3936H176.189C172.561 39.3936 169.847 40.3853 168.254 44.0121L145.748 95.0525H161.661C161.661 95.0525 164.263 88.1898 164.851 86.683C166.59 86.683 182.049 86.7069 184.259 86.7069C184.712 88.6566 186.103 95.0525 186.103 95.0525H200.164L187.899 39.3936ZM169.32 75.3565C170.573 72.1476 175.358 59.7877 175.358 59.7877C175.268 59.936 176.602 56.5632 177.367 54.4721L178.391 59.2739C178.391 59.2739 181.293 72.5684 181.899 75.3562H169.32V75.3565Z" fill="white"/>
<path d="M13.0296 39.3936L12.836 40.5527C18.8258 42.0052 24.1759 44.1071 28.8598 46.7222L42.306 94.9996L58.3392 94.9807L82.1963 39.3936H66.1442L51.308 77.3733L49.7272 69.6551C49.654 69.4196 49.5749 69.1831 49.4936 68.9467L44.3345 44.0956C43.4172 40.5689 40.7565 39.5165 37.4652 39.3936H13.0296Z" fill="white"/>
</g>
<defs>
<clipPath id="clip0_105_10">
<rect width="213" height="134" fill="white"/>
</clipPath>
</defs>
</svg>
